<?xml version="1.0" encoding="utf-8"?><svg version="1.1" id="Layer_1" xmlns="http://www.w3.org/2000/svg" xmlns:xlink="http://www.w3.org/1999/xlink" x="0px" y="0px" viewBox="0 0 122.88 70.51" style="enable-background:new 0 0 122.88 70.51" xml:space="preserve"><style type="text/css">.st0{fill-rule:evenodd;clip-rule:evenodd;}</style><g><path class="st0" d="M2.54,65.44h12.59c-0.93-0.24-1.63-1.1-1.63-2.1V2.17C13.5,0.98,14.48,0,15.67,0h90.97 c1.19,0,2.17,0.98,2.17,2.17v61.16c0,1.01-0.69,1.86-1.63,2.1h13.16c1.4,0,2.54,1.14,2.54,2.54v0c0,1.4-1.14,2.54-2.54,2.54H2.54 c-1.4,0-2.54-1.14-2.54-2.54v0C0,66.58,1.14,65.44,2.54,65.44L2.54,65.44z M61.44,46.33c1.99,0,3.62,1.61,3.62,3.62 c0,1.99-1.61,3.62-3.62,3.62c-1.99,0-3.62-1.61-3.62-3.62C57.82,47.96,59.44,46.33,61.44,46.33L61.44,46.33z M53.9,43.25 l-0.01,0.01c-0.02,0.02-0.05,0.04-0.07,0.05c-0.44,0.32-0.97,0.45-1.48,0.4c-0.54-0.06-1.07-0.32-1.44-0.78l0,0l0,0l-0.01-0.01l0,0 l0,0l-0.01-0.01c-0.02-0.02-0.04-0.05-0.05-0.07c-0.32-0.44-0.45-0.97-0.4-1.48c0.06-0.54,0.32-1.07,0.78-1.44l0,0l0,0l0.01-0.01 l0.02-0.02c1.59-1.29,3.25-2.27,4.95-2.93c1.73-0.67,3.51-1.02,5.3-1.03c1.76-0.01,3.53,0.32,5.27,0.99 c1.69,0.65,3.35,1.63,4.96,2.93c0.46,0.37,0.73,0.9,0.78,1.44c0.06,0.55-0.09,1.12-0.47,1.58c-0.37,0.46-0.9,0.73-1.44,0.78 c-0.55,0.06-1.12-0.09-1.58-0.47c-1.23-1-2.48-1.74-3.73-2.23c-1.26-0.49-2.52-0.74-3.77-0.74c-0.03,0-0.05,0-0.07,0 c-1.24,0.02-2.49,0.27-3.73,0.76c-1.27,0.5-2.52,1.25-3.74,2.23C53.94,43.22,53.92,43.23,53.9,43.25L53.9,43.25L53.9,43.25z M40.63,29.54c-0.44,0.35-0.98,0.5-1.51,0.46c-0.55-0.04-1.07-0.3-1.47-0.75l-0.01-0.01l0,0c-0.38-0.46-0.55-1.02-0.5-1.56 c0.04-0.55,0.3-1.07,0.75-1.47l0,0l0,0c3.58-3.07,7.39-5.39,11.35-6.95c3.98-1.56,8.1-2.34,12.25-2.31 c4.09,0.04,8.2,0.87,12.21,2.52c3.89,1.6,7.69,3.97,11.31,7.14l0.01,0.01l0,0c0.01,0.01,0.03,0.02,0.04,0.04l0,0l0,0l0,0 c0.42,0.39,0.65,0.91,0.68,1.44c0.04,0.55-0.14,1.12-0.54,1.57l0,0l-0.04,0.04h0h0v0l0,0c-0.39,0.42-0.91,0.65-1.44,0.68 c-0.55,0.04-1.12-0.14-1.57-0.54c-0.01-0.01-0.02-0.02-0.04-0.03l0,0l0,0l0,0l-0.01-0.01c-3.22-2.81-6.59-4.9-10.01-6.32 c-3.52-1.46-7.11-2.19-10.66-2.22c-3.6-0.03-7.19,0.65-10.68,2.03c-3.45,1.36-6.8,3.4-9.96,6.09 C40.75,29.44,40.69,29.49,40.63,29.54L40.63,29.54z M47.48,36.76c-0.44,0.39-1,0.57-1.55,0.54c-0.55-0.03-1.09-0.27-1.48-0.71 l-0.01-0.01l0,0c-0.39-0.44-0.57-1-0.54-1.55c0.03-0.55,0.27-1.09,0.7-1.48l0.01-0.01l0,0c2.69-2.38,5.47-4.18,8.31-5.38 c2.84-1.2,5.73-1.78,8.65-1.73c2.88,0.05,5.75,0.72,8.59,2.03c2.76,1.27,5.48,3.14,8.14,5.65c0.43,0.41,0.66,0.95,0.68,1.5 c0.02,0.55-0.17,1.11-0.58,1.54c-0.41,0.43-0.95,0.66-1.5,0.68c-0.55,0.02-1.11-0.17-1.54-0.58c-2.28-2.15-4.58-3.75-6.88-4.83 c-2.33-1.09-4.66-1.64-6.96-1.68c-2.34-0.04-4.68,0.45-7.01,1.44C52.12,33.2,49.78,34.73,47.48,36.76L47.48,36.76L47.48,36.76z M17.21,3.4h88.19v59.32H17.21V3.4L17.21,3.4z M57.87,66.39h7.14c0.67,0,1.22,0.55,1.22,1.22l0,0c0,0.67-0.55,1.22-1.22,1.22h-7.14 c-0.67,0-1.22-0.55-1.22-1.22l0,0C56.65,66.93,57.2,66.39,57.87,66.39L57.87,66.39z"/></g></svg>