<svg id="Layer_1" data-name="Layer 1" xmlns="http://www.w3.org/2000/svg" viewBox="0 0 83.22 122.88"><defs><style>.cls-1{fill:#17469e;}.cls-1,.cls-3{fill-rule:evenodd;}.cls-2{fill:#fff;}.cls-3{fill:#262626;}</style></defs><title>mobile-recharge</title><path class="cls-1" d="M34.68,37.22A24.22,24.22,0,0,1,58.23,55.79,21.94,21.94,0,0,0,55,57.15c-4.14,2.17-7.17,5.52-7.17,10.54A10.25,10.25,0,0,0,49,72.32a11,11,0,0,0-.7,1.82,10,10,0,0,0,.52,7A24.22,24.22,0,1,1,34.68,37.22Z"/><polygon class="cls-2" points="38.57 44.29 37.08 58.04 43.79 58.04 30.46 80.23 33.51 64.64 25.57 64.78 38.75 42.65 38.57 44.29 38.57 44.29"/><path class="cls-3" d="M13.28,0h42.8A13.26,13.26,0,0,1,69.35,13.28v40.8H68.29a26.11,26.11,0,0,0-2.86.17V14.48H3.91v90H65.43V99.29c.93.08,1.89.13,2.86.13l1.06,0v10.2a13.26,13.26,0,0,1-13.27,13.28H13.28A13.28,13.28,0,0,1,0,109.6V13.26A13.25,13.25,0,0,1,13.28,0ZM82.54,83.83a4.57,4.57,0,0,1,.68,2.35c0,4.32-6.69,7.83-14.93,7.83S53.36,90.5,53.36,86.18A4.62,4.62,0,0,1,54,83.83c1.9,3.19,7.56,5.49,14.25,5.49S80.65,87,82.54,83.83ZM73.68,64.12l-.17,1.94-7.33-.64a6.73,6.73,0,0,1,1.26,2.64l-1.77-.16a5.77,5.77,0,0,0-.79-1.73,3.57,3.57,0,0,0-1.52-1.36l.14-1.58,10.18.89Zm-5.39-3.05c6.77,0,12.27,2.16,12.27,4.82s-5.5,4.81-12.27,4.81S56,68.54,56,65.89s5.5-4.82,12.27-4.82Zm0-1.6c8.24,0,14.93,3.51,14.93,7.83s-6.69,7.83-14.93,7.83S53.36,71.62,53.36,67.3c0-5.95,10.44-7.83,14.93-7.83Zm14.3,15.18a4.48,4.48,0,0,1,.63,2.25c0,4.31-6.69,7.82-14.93,7.82S53.36,81.21,53.36,76.9A4.45,4.45,0,0,1,54,74.65c1.84,3.22,7.54,5.58,14.3,5.58,4.47,0,11.88-1.35,14.3-5.58ZM34.66,108.59a5.46,5.46,0,1,1-5.46,5.46,5.45,5.45,0,0,1,5.46-5.46Z"/></svg>